control3min_grf.mot
version=1
nRows=10
nColumns 19
inDegrees=yes
endheader
time	1_ground_force_vx	1_ground_force_vy	1_ground_force_vz	1_ground_force_px	1_ground_force_py	1_ground_force_pz	1_ground_torque_x	1_ground_torque_y	1_ground_torque_z	2_ground_force_vx	2_ground_force_vy	2_ground_force_vz	2_ground_force_px	2_ground_force_py	2_ground_force_pz	2_ground_torque_x	2_ground_torque_y	2_ground_torque_z
            0.005000	           28.519029	           41.625646	            5.060224	           -0.295058	            0.006155	           -0.392073	            0.140023	            0.204374	            0.024845	           17.673490	           49.759057	            7.302886	           -0.279410	            0.005592	           -0.730629	           -0.917651	           -2.583613	           -0.379184
            0.005500	           34.394046	           47.561391	            8.372794	           -0.297235	            0.006142	           -0.389079	            0.207783	            0.287330	            0.050582	           18.963087	           55.842864	            6.713946	           -0.281279	            0.005577	           -0.728202	           -0.981664	           -2.890824	           -0.347562
            0.006000	           39.165001	           55.125410	           10.273518	           -0.296780	            0.006133	           -0.386945	            0.280736	            0.395140	            0.073641	           18.519237	           61.920412	            6.125743	           -0.281677	            0.005568	           -0.726195	           -0.874041	           -2.922421	           -0.289113
            0.006500	           41.363756	           63.238183	           10.211128	           -0.293396	            0.006127	           -0.385546	            0.297404	            0.454681	            0.073418	           17.338666	           64.494427	            6.088512	           -0.282463	            0.005541	           -0.719426	           -0.743659	           -2.766181	           -0.261138
            0.007000	           41.863366	           67.571342	            8.669327	           -0.295472	            0.006139	           -0.388392	            0.300427	            0.484917	            0.062214	           15.823703	           68.907067	            6.527271	           -0.278928	            0.005551	           -0.718398	           -0.545058	           -2.373548	           -0.224836
            0.007500	           41.905646	           69.019177	            7.345575	           -0.297788	            0.006139	           -0.388469	            0.177630	            0.292559	            0.031136	           15.674053	           71.482963	            7.005811	           -0.275581	            0.005555	           -0.716359	           -0.515546	           -2.351194	           -0.230433
            0.008000	           43.051047	           69.561179	            7.115770	           -0.298075	            0.006144	           -0.389594	            0.130681	            0.211152	            0.021600	           15.851894	           74.242525	            7.954149	           -0.275372	            0.005558	           -0.716925	           -0.515097	           -2.412463	           -0.258465
            0.008500	           45.116797	           69.736928	            8.257821	           -0.292552	            0.006144	           -0.389420	            0.202028	            0.312275	            0.036978	           16.875219	           76.272372	            7.820154	           -0.276798	            0.005559	           -0.718722	           -0.583922	           -2.639203	           -0.270596
            0.009000	           46.769942	           69.371997	            9.352721	           -0.292556	            0.006143	           -0.389108	            0.244076	            0.362028	            0.048809	           17.385192	           77.747922	            7.684407	           -0.276020	            0.005566	           -0.719767	           -0.645229	           -2.885514	           -0.285197
            0.009500	           47.873038	           68.646428	           10.447441	           -0.298189	            0.006135	           -0.387619	            0.207521	            0.297570	            0.045288	           17.099316	           79.036957	            7.407558	           -0.275070	            0.005569	           -0.719563	           -0.613969	           -2.837907	           -0.265976
